<svg width="351" height="315" viewBox="0 0 351 315" fill="none" xmlns="http://www.w3.org/2000/svg">
<g clip-path="url(#clip0_1_10723)">
<path d="M319.032 22.3442C317.192 14.2096 317.071 12.2712 314.52 10.7827C313.913 10.4279 313.002 10.1423 311.927 9.91733C309.871 7.98752 306.097 5.07117 301.36 4.31829C294.116 3.15867 291.323 3.59137 289.544 2.44041C287.757 1.28079 283.073 0.164443 281.624 2.47502C280.193 4.75098 280.236 12.1241 282.413 15.2394C282.11 18.6923 282.266 23.3741 282.24 28.5491C282.136 51.6548 288.365 52.9529 299.469 53.1779C313.349 53.4721 320.871 30.4702 319.032 22.3442Z" fill="#212C59"/>
<path d="M294.489 29.9942C292.017 28.4278 289.779 33.724 289.779 33.724C289.779 33.724 289.718 32.9451 287.966 30.1672C286.213 27.398 288.451 16.6153 288.451 16.6153C285.918 17.5153 282.405 15.2307 282.405 15.2307C282.101 18.6836 282.257 23.3653 282.231 28.5403C282.162 43.6413 284.799 49.4221 289.735 51.6807C288.729 47.9163 290.924 39.3749 290.924 39.3749C292.624 38.423 296.971 31.5605 294.489 29.9942Z" fill="#EAA794"/>
<path d="M221.21 17.4028C221.21 17.4028 218.842 25.7105 219.449 32.7028C220.056 39.6865 222.468 46.0817 223.552 46.5576C224.637 47.0336 228.862 46.5576 228.862 46.5576L233.937 37.7653L236.669 20.7778L221.21 17.4028Z" fill="#EAA794"/>
<path d="M74.4334 40.7682C74.4334 40.7682 77.5738 39.0807 78.1724 40.4653C78.7797 41.8499 76.8538 48.8682 74.0777 48.3143C71.293 47.7518 71.293 47.0941 71.293 47.0941L74.4334 40.7682Z" fill="#EAA794"/>
<path d="M66.3396 54.9692C66.3396 54.9692 66.4611 60.049 67.3633 60.949C68.2655 61.849 57.5863 63.8394 55.8339 63.1731C54.0815 62.5067 53.4829 62.1519 53.4829 62.1519C53.4829 62.1519 55.3568 59.9279 54.7495 57.6952C54.1422 55.4712 66.3396 54.9692 66.3396 54.9692Z" fill="#EAA794"/>
<path d="M25.6092 89.4375C25.6092 89.4375 18.1052 108.917 17.1943 114.551C16.6911 117.675 42.552 138.773 42.552 138.773L48.7721 130.336L29.1487 113.106L35.3082 96.776L25.6092 89.4375Z" fill="#EAA794"/>
<path d="M44.1223 304.71C44.1223 304.71 43.2895 313.771 44.0095 314.316C44.7382 314.861 58.1935 314.861 60.371 314.619C62.5485 314.377 58.4971 311.91 57.4735 311.486C56.4498 311.062 52.5806 309.081 51.9213 308.596C51.2533 308.111 50.4639 304.71 50.4639 304.71H44.1223Z" fill="#0C467C"/>
<path d="M68.1784 304.918C68.1784 304.918 68.083 313.771 68.8117 314.316C69.5404 314.861 82.9957 314.861 85.1732 314.619C87.3507 314.377 83.2994 311.91 82.2757 311.486C81.252 311.062 77.3829 309.081 76.7235 308.596C76.0555 308.111 75.0666 304.71 75.0666 304.71L68.1784 304.918Z" fill="#0C467C"/>
<path d="M31.2136 66.5134C31.2136 66.5134 19.1897 87.9923 19.1897 98.2904C19.1897 100.462 35.1261 107.507 37.4858 103.708C39.8368 99.9173 31.2136 66.5134 31.2136 66.5134Z" fill="#D8D8DB"/>
<path d="M58.4884 60.5337C64.7866 60.7154 73.8522 55.852 80.5582 62.5154C95.3408 77.2097 86.9865 119.008 84.5661 130.327H39.0819C39.0819 130.327 26.8325 76.8375 31.5344 65.5529C33.8941 59.902 44.2263 60.1097 58.4884 60.5337Z" fill="#D8D8DB"/>
<path d="M36.0888 62.7577C36.0888 62.7577 34.7615 59.7462 33.6164 59.6856C32.4712 59.625 30.6841 59.8933 29.513 60.8625C27.6391 62.3942 27.2227 65.3279 27.3962 66.5135C27.5784 67.6991 29.5477 68.4346 30.181 68.4173C30.8056 68.4087 32.3498 68.4173 32.3498 68.4173L36.0888 62.7577Z" fill="#EAA794"/>
<path d="M89.1118 93.4615L87.8799 100.636C87.8799 100.636 95.9305 118.947 97.9779 119.665C100.034 120.392 108.839 120.392 108.839 120.392L92.1741 89.4375L89.1118 93.4615Z" fill="#EAA794"/>
<path d="M77.3049 60.1875C77.3049 60.1875 81.4343 60.525 86.3879 68.1144C91.3415 75.7038 98.3077 93.1673 97.1192 95.9365C95.9307 98.7058 84.8177 102.92 84.8177 102.92L77.3049 60.1875Z" fill="#D8D8DB"/>
<path d="M90.6993 159.058C90.3349 144.121 84.5659 130.327 84.5659 130.327H39.0817C39.0817 130.327 30.2156 140.746 30.2156 167.166C30.2156 174.029 33.3213 190.973 33.3213 190.973L36.3663 217.921L43.1677 304.468C43.2111 305.057 43.7056 305.515 44.3042 305.515H51.253C51.8516 305.515 52.3461 305.057 52.3895 304.468L60.4748 198.917L67.4063 304.451C67.4497 305.048 67.9442 305.515 68.5428 305.515H75.509C76.0902 305.515 76.576 305.083 76.6454 304.503C77.9814 292.301 91.0463 173.224 90.6993 159.058Z" fill="#212C59"/>
<path d="M146.429 20.2328C146.429 20.2328 146.88 30.8943 147.158 32.6078C147.427 34.3212 149.691 35.5847 149.691 36.9433C149.691 38.302 147.696 40.5607 147.245 41.1924C146.793 41.8241 146.88 48.2972 145.163 49.6645C143.445 51.0405 123.882 46.7049 123.882 46.7049L122.217 30.7126C122.208 30.7126 135.923 17.9741 146.429 20.2328Z" fill="#EAA794"/>
<path d="M117.254 45.4413C117.254 45.4413 108.831 34.3298 108.839 20.7779C108.839 14.1836 113.645 14.149 116.092 11.475C118.538 8.80094 124.698 3.34037 134.388 2.93364C144.078 2.51825 144.443 -1.80002 147.704 0.874021C150.966 3.54806 149.066 12.5048 147.704 13.7423C146.342 14.9798 148.52 13.3269 149.969 16.1134C151.417 18.8913 147.435 22.3356 143.627 22.725C139.827 23.1144 139.099 22.725 139.099 22.725C139.099 22.725 141.328 27.5365 140.487 30.9375C139.645 34.3384 137.65 38.6567 137.381 39.6865C137.112 40.7163 136.019 33.8625 133.937 33.2481C131.855 32.6336 130.588 37.0125 131.759 39.0721C132.939 41.1317 135.837 44.2211 134.293 47.3106C132.748 50.3913 117.254 45.4413 117.254 45.4413Z" fill="#212C59"/>
<path d="M108.241 304.71C108.241 304.71 107.408 313.771 108.128 314.316C108.857 314.861 120.343 314.861 122.52 314.619C124.698 314.377 121.375 310.569 120.343 310.145C119.319 309.721 116.196 307.54 115.537 307.056C114.869 306.571 114.582 304.71 114.582 304.71H108.241Z" fill="#C16E4F"/>
<path d="M137.945 304.918C137.945 304.918 137.849 313.771 138.578 314.316C139.307 314.861 152.762 314.861 154.94 314.619C157.117 314.377 153.066 311.91 152.042 311.486C151.018 311.062 147.149 309.081 146.49 308.596C145.822 308.111 144.833 304.71 144.833 304.71L137.945 304.918Z" fill="#C16E4F"/>
<path d="M258.453 148.336L259.173 229.396L279.464 304.373L271.162 305.524L240.096 234.216L233.104 189.649L221.21 305.896L212.153 305.152L209.906 159.023L258.453 148.336Z" fill="#EAA794"/>
<path d="M223.266 307.419C222.979 305.68 221.132 304.788 221.132 304.788C221.132 304.788 212.639 304.338 211.858 304.814C211.086 305.299 207.702 307.125 204.709 307.419C202.02 307.679 195.358 309.496 194.23 312.3C194.039 312.776 194.395 313.295 194.915 313.295H222.589C223.942 313.304 223.561 309.159 223.266 307.419Z" fill="#0C467C"/>
<path d="M281.364 303.118C280.453 301.612 278.405 301.448 278.405 301.448C278.405 301.448 270.337 304.131 269.791 304.866C269.487 305.273 268.576 306.355 267.379 307.48C264.456 307.886 258.452 309.652 257.385 312.3C257.194 312.776 257.55 313.295 258.071 313.295H270.832L282.899 308.83C284.148 308.345 282.266 304.633 281.364 303.118Z" fill="#0C467C"/>
<path d="M116.448 140.746L95.8005 146.527L106.219 304.217C106.272 304.953 106.879 305.515 107.616 305.515H114.808C115.537 305.515 116.135 304.961 116.196 304.243L125.895 190.973L136.618 304.261C136.687 304.979 137.286 305.524 138.006 305.524H144.477C145.215 305.524 145.822 304.953 145.874 304.217L155.573 151.702L116.448 140.746Z" fill="#0C467C"/>
<path d="M268.724 146.527L277.287 305.524H287.515L296.849 193.829L308.925 305.524H318.719L328.496 151.702L289.371 140.746L268.724 146.527Z" fill="#0C467C"/>
<path d="M155.573 159.058L160.127 305.619C160.145 306.26 160.631 306.788 161.264 306.865L168.499 307.766C169.219 307.852 169.878 307.333 169.957 306.606L182.379 185.305L197.223 306C197.31 306.684 197.917 307.186 198.602 307.134L205.49 306.666C206.15 306.623 206.67 306.087 206.705 305.42L212.491 161.455L155.573 159.058Z" fill="#212C59"/>
<path d="M147.418 49.6816C147.418 49.6816 136.366 45.0605 121.696 45.4759C107.026 45.8913 94.1695 52.572 93.4408 54.0172C92.7121 55.4624 94.5252 108.536 92.1742 128.639C89.1032 154.835 92.5733 161.922 93.0851 162.666C101.24 174.418 139.081 174.349 151.218 168.568C163.355 162.787 164.257 138.764 164.257 138.764L147.418 49.6816Z" fill="#F3D166"/>
<path d="M93.2935 107.342C93.2501 109.376 93.2067 111.358 93.146 113.279C103.556 115.33 117.749 117.372 132.905 117.372C141.719 117.372 150.862 116.68 159.754 114.888L158.67 109.177C135.108 113.885 109.256 110.51 93.2935 107.342Z" fill="#0CA6B4"/>
<path d="M91.2807 138.141C91.1332 140.279 91.0378 142.243 90.9771 144.052C101.535 146.233 116.673 148.587 132.896 148.587C142.985 148.587 153.482 147.652 163.571 145.229C164.04 142.217 164.196 139.907 164.239 139.093C138.292 145.887 108.215 141.655 91.2807 138.141Z" fill="#0CA6B4"/>
<path d="M158.054 162C159.295 159.992 160.292 157.751 161.09 155.475C135.819 161.178 107.382 157.102 91.1506 153.727C91.3675 156.496 91.7232 158.487 92.0615 159.889C102.559 162 117.22 164.198 132.896 164.198C141.163 164.181 149.7 163.549 158.054 162Z" fill="#0CA6B4"/>
<path d="M92.6948 122.824C92.5474 124.961 92.3825 126.926 92.183 128.639C92.183 128.657 92.183 128.674 92.1743 128.691C102.663 130.803 117.28 132.984 132.905 132.984C142.664 132.984 152.806 132.101 162.583 129.851L161.507 124.183C136.921 129.834 109.23 126.156 92.6948 122.824Z" fill="#0CA6B4"/>
<path d="M93.4409 91.7654C93.4409 93.7471 93.4323 95.7375 93.4236 97.7279C103.808 99.7615 117.888 101.769 132.913 101.769C140.79 101.769 148.919 101.181 156.909 99.7875L155.833 94.0933C133.113 97.9962 108.761 94.8029 93.4409 91.7654Z" fill="#0CA6B4"/>
<path d="M93.2671 60.5337C93.2671 62.2558 93.2844 64.2635 93.3018 66.5048C103.695 68.5385 117.827 70.5722 132.904 70.5722C138.899 70.5722 145.041 70.226 151.157 69.4558L150.081 63.7443C129 66.2798 107.304 63.3202 93.2671 60.5337Z" fill="#0CA6B4"/>
<path d="M144.547 48.6693C131.907 49.6385 119.31 48.825 108.51 47.4231C103.782 48.6606 99.7911 50.2616 97.1018 51.6116C107.018 53.3856 119.588 54.9606 132.887 54.9606C137.945 54.9606 143.098 54.7183 148.26 54.1904L147.41 49.6817C147.418 49.6817 146.386 49.2577 144.547 48.6693Z" fill="#0CA6B4"/>
<path d="M93.3713 76.1538C93.3887 78.0836 93.3974 80.0827 93.4147 82.125C103.799 84.1586 117.879 86.1663 132.904 86.1663C139.845 86.1663 146.976 85.725 154.046 84.6692L152.962 78.949C131.057 82.1336 108.059 79.0615 93.3713 76.1538Z" fill="#0CA6B4"/>
<path d="M258.808 137.25C258.808 137.25 271.621 148.725 269.93 177.387C268.238 206.057 261.584 220.699 261.584 220.699H208.865C208.865 220.699 202.515 175.993 205.889 161.109C209.273 146.224 217.297 138.764 217.297 138.764L258.808 137.25Z" fill="#0C467C"/>
<path d="M264.63 193.448C261.585 191.068 258.427 188.602 255.052 188.083C250.957 187.451 247.695 189.311 244.538 191.103C241.623 192.756 238.613 194.461 234.7 194.521C230.562 194.564 226.172 192.28 221.921 190.056C217.662 187.823 213.61 185.711 209.828 185.902C208.284 185.98 206.783 186.404 205.378 187.001C205.447 188.031 205.516 189.061 205.586 190.09C206.974 189.372 208.457 188.861 209.976 188.784C212.995 188.628 216.673 190.566 220.568 192.609C225.14 195.006 229.816 197.481 234.735 197.411C239.385 197.342 242.881 195.361 245.952 193.612C248.936 191.925 251.513 190.462 254.592 190.938C257.221 191.345 260.066 193.569 262.825 195.724C264.343 196.91 265.87 198.095 267.432 199.047C267.605 198.043 267.779 197.013 267.952 195.949C266.876 195.205 265.757 194.331 264.63 193.448Z" fill="#D8D8DB"/>
<path d="M264.629 201.392C261.584 199.013 258.427 196.546 255.052 196.027C250.957 195.404 247.695 197.256 244.538 199.047C241.623 200.7 238.612 202.405 234.7 202.465C230.562 202.509 226.172 200.224 221.921 198C217.662 195.767 213.61 193.664 209.828 193.846C208.492 193.915 207.191 194.236 205.95 194.712C206.037 195.724 206.124 196.737 206.219 197.732C207.425 197.178 208.692 196.797 209.975 196.737C212.994 196.589 216.673 198.519 220.568 200.562C225.14 202.959 229.816 205.408 234.735 205.364C239.385 205.295 242.881 203.313 245.952 201.565C248.936 199.878 251.512 198.415 254.592 198.891C257.221 199.298 260.066 201.522 262.825 203.677C263.875 204.499 264.942 205.321 266.017 206.074C266.243 205.096 266.46 204.066 266.677 202.993C266.009 202.474 265.323 201.938 264.629 201.392Z" fill="#D8D8DB"/>
<path d="M220.577 208.497C225.148 210.894 229.824 213.36 234.743 213.3C239.393 213.231 242.889 211.249 245.96 209.501C248.945 207.813 251.521 206.351 254.601 206.827C257.229 207.233 260.075 209.458 262.834 211.612C263.328 211.993 263.823 212.383 264.317 212.755C264.586 211.829 264.864 210.825 265.141 209.734C264.968 209.605 264.794 209.466 264.621 209.328C261.576 206.948 258.418 204.482 255.043 203.962C250.949 203.331 247.687 205.191 244.529 206.983C241.614 208.635 238.604 210.34 234.691 210.401C230.553 210.435 226.163 208.159 221.913 205.935C217.653 203.703 213.602 201.583 209.819 201.782C208.735 201.833 207.685 202.067 206.67 202.396C206.774 203.4 206.878 204.395 206.982 205.347C207.954 204.975 208.96 204.715 209.975 204.663C213.003 204.533 216.673 206.455 220.577 208.497Z" fill="#D8D8DB"/>
<path d="M263.25 216.216C260.63 214.209 257.915 212.357 255.043 211.915C250.949 211.284 247.687 213.144 244.529 214.936C241.614 216.588 238.604 218.293 234.691 218.354C230.553 218.388 226.163 216.112 221.913 213.888C217.653 211.656 213.602 209.544 209.819 209.735C209.03 209.778 208.266 209.916 207.512 210.107C207.633 211.128 207.746 212.088 207.859 212.997C208.553 212.798 209.255 212.651 209.975 212.616C212.994 212.478 216.673 214.399 220.568 216.441C223.83 218.155 227.144 219.86 230.562 220.699H238.638C241.449 219.981 243.809 218.665 245.96 217.445C248.945 215.758 251.521 214.295 254.601 214.771C257.039 215.143 259.667 217.09 262.235 219.089C262.513 218.371 262.86 217.411 263.25 216.216Z" fill="#D8D8DB"/>
<path d="M234.743 141.793C239.393 141.724 242.889 139.742 245.96 137.994C246.142 137.89 246.316 137.795 246.489 137.7L239.532 137.951C238.057 138.496 236.47 138.877 234.691 138.903C233.364 138.911 232.01 138.669 230.64 138.28L223.578 138.539C227.196 140.339 230.9 141.828 234.743 141.793Z" fill="#D8D8DB"/>
<path d="M264.629 161.662C261.584 159.283 258.427 156.816 255.052 156.297C250.957 155.665 247.695 157.526 244.538 159.317C241.623 160.97 238.612 162.675 234.7 162.735C230.562 162.753 226.172 160.494 221.921 158.27C217.662 156.037 213.61 153.934 209.828 154.116C209.169 154.151 208.518 154.263 207.876 154.41C207.486 155.475 207.113 156.591 206.766 157.768C207.807 157.353 208.882 157.059 209.967 157.007C212.986 156.851 216.664 158.789 220.559 160.832C225.131 163.229 229.807 165.678 234.726 165.634C239.376 165.565 242.872 163.584 245.943 161.835C248.927 160.148 251.504 158.685 254.583 159.161C257.212 159.568 260.058 161.792 262.816 163.947C265.15 165.773 267.527 167.608 269.973 168.559C269.921 167.443 269.852 166.344 269.756 165.288C268.117 164.397 266.399 163.047 264.629 161.662Z" fill="#D8D8DB"/>
<path d="M264.629 153.718C261.584 151.338 258.427 148.872 255.052 148.353C250.957 147.721 247.695 149.582 244.538 151.373C241.623 153.026 238.612 154.731 234.7 154.791C230.562 154.809 226.172 152.55 221.921 150.326C218.347 148.448 214.929 146.691 211.693 146.267C211.19 147.124 210.678 148.059 210.175 149.063C213.159 149.011 216.751 150.88 220.577 152.879C225.148 155.276 229.824 157.76 234.743 157.682C239.393 157.613 242.889 155.631 245.96 153.883C248.945 152.195 251.521 150.733 254.601 151.209C257.229 151.615 260.075 153.839 262.834 155.994C264.89 157.595 266.972 159.222 269.115 160.243C268.898 158.928 268.637 157.682 268.36 156.488C267.154 155.691 265.905 154.713 264.629 153.718Z" fill="#D8D8DB"/>
<path d="M255.043 140.409C250.949 139.777 247.687 141.637 244.529 143.429C241.614 145.082 238.604 146.786 234.691 146.847C230.553 146.873 226.164 144.606 221.913 142.382C220.03 141.395 218.2 140.443 216.404 139.699C215.909 140.244 215.25 141.014 214.478 142.044C216.395 142.771 218.443 143.836 220.559 144.943C225.131 147.34 229.807 149.807 234.726 149.746C239.376 149.677 242.872 147.695 245.943 145.947C248.927 144.26 251.504 142.797 254.584 143.273C257.212 143.68 260.058 145.904 262.816 148.059C264.109 149.071 265.419 150.092 266.746 150.958C266.07 149.011 265.332 147.288 264.595 145.774C261.576 143.394 258.418 140.928 255.043 140.409Z" fill="#D8D8DB"/>
<path d="M264.629 185.504C261.584 183.124 258.427 180.658 255.052 180.138C250.957 179.507 247.695 181.367 244.538 183.158C241.623 184.811 238.612 186.516 234.7 186.577C230.562 186.629 226.172 184.335 221.921 182.111C217.662 179.879 213.61 177.776 209.828 177.958C208.136 178.044 206.514 178.537 204.996 179.238C205.031 180.277 205.074 181.341 205.126 182.406C206.644 181.558 208.292 180.934 209.984 180.848C213.003 180.709 216.681 182.631 220.577 184.673C225.148 187.07 229.824 189.528 234.743 189.476C239.393 189.407 242.889 187.425 245.96 185.677C248.945 183.989 251.521 182.527 254.601 183.003C257.229 183.409 260.075 185.633 262.834 187.788C264.716 189.259 266.616 190.731 268.568 191.752C268.698 190.748 268.828 189.709 268.95 188.654C267.553 187.788 266.104 186.655 264.629 185.504Z" fill="#D8D8DB"/>
<path d="M264.629 169.607C261.584 167.227 258.426 164.761 255.052 164.241C250.957 163.61 247.695 165.47 244.537 167.262C241.622 168.914 238.612 170.619 234.7 170.68C230.562 170.74 226.172 168.438 221.921 166.214C217.661 163.982 213.61 161.87 209.828 162.061C208.336 162.138 206.887 162.528 205.525 163.099C205.369 164.137 205.238 165.271 205.143 166.491C206.653 165.652 208.292 165.037 209.966 164.951C212.985 164.804 216.664 166.734 220.559 168.776C225.131 171.173 229.807 173.639 234.726 173.579C239.376 173.51 242.872 171.528 245.943 169.78C248.927 168.092 251.504 166.63 254.583 167.106C257.212 167.512 260.057 169.737 262.816 171.891C265.141 173.709 267.509 175.543 269.947 176.495C269.999 175.431 270.034 174.401 270.043 173.388C268.325 172.506 266.503 171.078 264.629 169.607Z" fill="#D8D8DB"/>
<path d="M264.629 177.56C261.584 175.18 258.427 172.713 255.052 172.194C250.957 171.562 247.695 173.423 244.538 175.214C241.623 176.867 238.612 178.572 234.7 178.633C230.562 178.693 226.172 176.391 221.921 174.167C217.662 171.935 213.61 169.823 209.828 170.013C208.11 170.1 206.462 170.611 204.927 171.32C204.909 172.376 204.892 173.466 204.901 174.583C206.479 173.665 208.206 172.99 209.976 172.895C212.994 172.757 216.673 174.678 220.568 176.72C225.14 179.117 229.816 181.558 234.735 181.523C239.385 181.454 242.881 179.472 245.952 177.724C248.936 176.037 251.513 174.574 254.592 175.05C257.221 175.457 260.066 177.681 262.825 179.836C264.976 181.514 267.163 183.211 269.401 184.214C269.496 183.202 269.583 182.172 269.661 181.116C268.056 180.234 266.365 178.91 264.629 177.56Z" fill="#D8D8DB"/>
<path d="M212.482 45.5366C225.061 42.4472 254.479 43.226 263.033 56.8299C270.06 67.9933 263.206 78.0751 264.239 94.6126C265.358 112.509 266.052 130.353 264.3 135.684C260.916 145.939 254.601 138.488 237.458 138.765C220.316 139.041 206.939 149.85 203.391 138.765C199.843 127.679 186.023 52.0443 212.482 45.5366Z" fill="#DE3E37"/>
<path d="M218.512 59.2097C218.512 59.2097 222.684 54.7789 223.769 54.9779C224.845 55.177 224.038 57.2626 224.038 57.2626C224.038 57.2626 229.833 56.8039 232.791 57.8078C235.758 58.8116 237.771 63.3895 236.027 64.2895C234.275 65.1895 230.058 64.2462 228.193 65.1203C226.328 65.9943 223.838 66.3318 222.762 65.9251C221.687 65.5183 218.113 65.5183 218.113 65.5183L218.512 59.2097Z" fill="#EAA794"/>
<path d="M199.764 59.6249C205.473 62.2384 214.799 68.1143 222.042 71.1864C229.286 74.2586 266.416 83.8297 267.865 85.8201C269.314 87.8105 269.487 103.188 263.874 106.07C258.261 108.952 216.247 106.961 216.247 106.961C216.247 106.961 226.814 186.516 229.954 196.875C229.954 196.875 215.467 223.373 180.445 220.483C145.431 217.592 135.281 199.038 135.281 199.038C135.281 199.038 148.563 120.747 147.114 109.428C147.114 109.428 94.4644 111.115 91.8098 106.78C89.1551 102.444 85.7458 94.7336 88.6433 89.4374C91.5408 84.1413 139.385 74.5009 149.769 65.8297C160.162 57.1499 187.636 54.0605 199.764 59.6249Z" fill="#F46B5C"/>
<path d="M218.789 124.936C218.789 124.936 214.617 120.505 213.532 120.704C212.457 120.903 213.263 122.988 213.263 122.988C213.263 122.988 207.468 122.53 204.51 123.534C201.543 124.537 199.53 129.115 201.274 130.015C203.027 130.915 207.243 129.972 209.108 130.846C210.973 131.72 213.463 132.058 214.539 131.651C215.614 131.244 219.188 131.244 219.188 131.244L218.789 124.936Z" fill="#EAA794"/>
<path d="M172.88 23.6422C177.356 20.622 188.183 18.6836 194.759 24.7153C201.335 30.7384 199.105 42.5595 201.474 49.223C203.842 55.8864 209.854 60.0057 204.12 65.7951C198.385 71.5845 184.288 77.547 174.494 73.696C164.691 69.8451 158.783 62.697 160.266 57.8335C161.741 52.9701 166.842 45.7355 166.842 41.0537C166.842 36.372 168.716 26.4547 172.88 23.6422Z" fill="#212C59"/>
<path d="M141.441 68.1143C139.064 63.2422 141.077 50.4086 147.418 49.6817C153.76 48.9547 176.758 71.0047 183.282 70.4595C189.805 69.9143 215.519 57.4528 218.416 58.7163C221.314 59.9797 222.216 65.9422 219.865 69.0143C217.514 72.0865 190.933 92.3192 181.217 93.4095C171.509 94.4913 146.49 78.4557 141.441 68.1143Z" fill="#F3D166"/>
<path d="M93.4497 54.0259C93.4497 54.0259 74.4336 68.3134 68.2742 69.0316C62.1148 69.7586 36.9392 61.6413 35.1261 62.3682C33.313 63.0951 30.5976 66.2538 31.8642 68.7374C33.1308 71.2211 58.4885 91.4365 67.1811 92.1547C75.8737 92.8817 90.9426 79.9961 93.5018 78.0576C97.796 74.8038 95.74 52.9441 93.4497 54.0259Z" fill="#F3D166"/>
<path d="M207.91 120.115C207.737 118.852 208.474 117.649 209.68 117.242C218.086 114.386 249.447 103.232 254.826 93.9028C261.046 83.1114 269.314 57.5566 273.304 53.9826C277.286 50.4086 318.225 48.5999 324.384 51.8537C330.544 55.1076 351.008 98.472 351.008 107.861C351.008 118.16 330.179 135.32 330.179 135.32C330.179 135.32 333.441 156.764 323.655 159.049C313.878 161.334 268.594 162.545 264.976 159.049C261.35 155.553 265.34 116.654 265.34 116.654C265.34 116.654 259.233 124.001 255.321 125.567C249.569 127.86 221.487 132.655 212.612 134.135C211.129 134.385 209.75 133.356 209.541 131.876L207.91 120.115Z" fill="#0CA6B4"/>
<path d="M204.718 305.524C204.718 305.524 205.742 313.771 205.022 314.316C204.293 314.861 190.838 314.861 188.66 314.619C186.483 314.377 190.534 311.91 191.558 311.486C192.581 311.062 196.451 309.081 197.11 308.596C197.778 308.111 199.045 305.896 199.045 305.896L204.718 305.524Z" fill="#212C59"/>
<path d="M168.386 305.524C168.386 305.524 169.41 313.771 168.69 314.316C167.961 314.861 154.506 314.861 152.328 314.619C150.151 314.377 154.202 311.91 155.226 311.486C156.249 311.062 160.119 309.081 160.778 308.596C161.446 308.111 162.712 305.896 162.712 305.896L168.386 305.524Z" fill="#212C59"/>
<path d="M276.983 305.524C276.983 305.524 278.614 303.412 283.567 303.594C288.521 303.776 288.703 304.736 288.816 305.524C288.937 306.303 290.933 313.71 288.512 314.498C286.101 315.277 267.987 314.922 266.66 314.922C265.332 314.922 266.842 311.729 269.557 310.284C272.272 308.838 274.085 308.838 274.745 308.414C275.413 307.99 276.983 305.524 276.983 305.524Z" fill="#C16E4F"/>
<path d="M307.294 305.524C307.294 305.524 308.925 303.412 313.879 303.594C318.832 303.776 319.014 304.736 319.127 305.524C319.249 306.303 321.244 313.71 318.824 314.498C316.412 315.277 298.298 314.922 296.971 314.922C295.643 314.922 297.153 311.729 299.868 310.284C302.583 308.838 304.397 308.838 305.065 308.414C305.724 307.99 307.294 305.524 307.294 305.524Z" fill="#C16E4F"/>
<path d="M63.0168 17.1605C66.5303 17.6105 71.7094 19.4019 75.3357 24.1528C78.9619 28.9038 76.9666 40.0413 74.2513 47.847C71.5359 55.6528 61.5681 61.7884 54.1421 58.9846C46.7161 56.1894 44.0007 47.847 44.0007 47.847C44.0007 47.847 40.0188 45.4499 37.8847 51.1961C34.8484 59.3913 26.1558 55.4624 24.707 64.047C24.0217 68.1057 36.7482 77.8759 25.1581 84.5567C13.568 91.2374 -0.737458 66.574 1.79571 54.9692C4.33755 43.3644 10.7659 42.7413 19.6407 40.6557C28.5154 38.5701 23.7961 32.348 31.7253 31.2576C39.6544 30.1759 42.7341 36.9519 42.7341 36.9519C42.7341 36.9519 37.3295 13.898 63.0168 17.1605Z" fill="#893E2A"/>
<path d="M42.2395 36.0779C42.2395 36.0779 43.6362 35.351 45.5708 36.7356C47.5054 38.1202 45.753 47.5183 44.0006 47.8471C42.2482 48.176 42.2395 47.3539 42.2395 47.3539C42.2395 47.3539 44.1134 42.0923 44.3302 40.1625C44.5471 38.2414 42.2395 36.0779 42.2395 36.0779Z" fill="#F3D166"/>
<path d="M33.9198 32.0971C33.9198 32.0971 30.5365 31.0759 25.5916 32.9971C20.638 34.9269 15.9794 41.9365 11.5203 43.5374C7.06128 45.1384 7.06128 45.1384 7.06128 45.1384L11.9975 45.5278C11.9975 45.5278 15.5023 42.6374 18.0354 40.1105C20.5686 37.5836 24.3597 34.2086 27.3526 33.9663C30.3543 33.724 33.9198 32.0971 33.9198 32.0971Z" fill="#893E2A"/>
<path d="M36.7569 50.4951C36.7569 50.4951 34.9438 57.0115 31.0486 59.6682C27.1534 62.3249 24.6202 69.8278 25.4357 71.0913C26.2512 72.3547 23.718 70.5634 23.718 70.5634C23.718 70.5634 27.0667 61.5115 30.2418 58.9845C33.4083 56.4576 33.9288 53.9826 33.9288 53.9826L36.7569 50.4951Z" fill="#893E2A"/>
<path d="M13.9757 80.2991C13.4205 79.901 12.1886 79.5375 10.7659 79.1135C7.46927 78.1443 2.94947 76.8116 1.03224 73.35C-1.70045 68.4174 1.85639 57.15 2.01255 56.6741L3.0449 57.0029C3.0102 57.1154 -0.520622 68.3049 1.98652 72.8308C3.68687 75.9116 7.96376 77.1664 11.0868 78.0837C12.6657 78.551 13.9236 78.9145 14.6263 79.4337L13.9757 80.2991Z" fill="#893E2A"/>
<path d="M221.982 5.84136C221.982 5.84136 217.028 4.75963 215.944 8.12597C214.859 11.4923 218.867 17.1606 221.21 17.4029C221.21 17.4029 220.776 25.1135 222.58 27.8827C224.394 30.6519 224.151 32.5817 224.151 32.5817C224.151 32.5817 226.684 26.801 228.618 27.6404C230.553 28.4798 229.226 35.4721 224.879 36.675C224.879 36.675 225.487 42.3952 228.506 44.0481C231.525 45.701 235.203 45.701 235.203 45.701C235.203 45.701 224.125 49.6558 227.386 56.8212C228.627 59.5385 232.782 60.1529 231.429 63.7702C230.067 67.3875 230.024 78.6721 237.615 79.6673C245.214 80.6712 249.265 74.6048 248.06 69.7933C246.854 64.9731 250.471 60.1616 253.369 57.9894C256.266 55.8173 256.37 52.6327 252.371 48.3058C249.291 44.9741 242.499 44.0308 242.499 44.0308C242.499 44.0308 251.313 41.1231 253.004 26.4289C254.696 11.7346 243.054 6.08367 234.387 6.80193C225.729 7.52886 221.982 5.84136 221.982 5.84136Z" fill="#893E2A"/>
<path d="M232.817 45.4759C232.817 45.4759 232.843 46.6182 234.778 46.5576C236.712 46.4971 244.138 44.5499 244.32 44.048C244.503 43.5461 244.503 43.0701 243.054 43.1307C241.605 43.1826 232.817 45.4759 232.817 45.4759Z" fill="#212C59"/>
<path d="M330.171 135.329C330.171 135.329 331.047 134.602 332.426 133.382C328.305 119.077 326.553 73.0903 326.553 73.0903C322.927 94.3182 330.171 135.329 330.171 135.329Z" fill="#0C467C"/>
</g>
<defs>
<clipPath id="clip0_1_10723">
<rect width="351" height="315" fill="white"/>
</clipPath>
</defs>
</svg>
